<?xml version="1.0" encoding="utf-8"?>
<!-- Generator: Adobe Illustrator 16.0.0, SVG Export Plug-In . SVG Version: 6.00 Build 0)  -->
<!DOCTYPE svg PUBLIC "-//W3C//DTD SVG 1.1//EN" "http://www.w3.org/Graphics/SVG/1.1/DTD/svg11.dtd">
<svg version="1.1" id="Layer_1" xmlns="http://www.w3.org/2000/svg" xmlns:xlink="http://www.w3.org/1999/xlink" x="0px" y="0px"
	 width="23px" height="23px" viewBox="0 0 23 23" enable-background="new 0 0 23 23" xml:space="preserve">
<circle fill="#C4C4C4" cx="11.5" cy="11.5" r="9.366"/>
<path fill="#828282" d="M11.5,0C17.842,0,23,5.158,23,11.5S17.842,23,11.5,23C5.159,23,0,17.842,0,11.5S5.159,0,11.5,0z
	 M14.65,6.988L11.5,10.14L8.349,6.988c-0.375-0.375-0.984-0.376-1.361,0c-0.375,0.375-0.375,0.985,0,1.36L10.14,11.5l-3.151,3.15
	c-0.375,0.377-0.375,0.986,0,1.361c0.376,0.377,0.984,0.376,1.361,0L11.5,12.86l3.15,3.151c0.376,0.376,0.986,0.376,1.361,0
	c0.377-0.376,0.376-0.985,0-1.361L12.86,11.5l3.151-3.151c0.376-0.375,0.377-0.985,0-1.361C15.637,6.612,15.026,6.612,14.65,6.988z"
	/>
</svg>
